Coordinates
version=1
nRows=18
nColumns=22
inDegrees=yes

Units are S.I. units (second, meters, Newtons, ...)
If the header above contains a line with 'inDegrees', this indicates whether rotational values are in degrees (yes) or radians (no).

endheader
time	pelvis_tilt	pelvis_list	pelvis_rotation	pelvis_tx	pelvis_ty	pelvis_tz	hip_flexion_r	hip_adduction_r	hip_rotation_r	knee_angle_r	ankle_angle_r	subtalar_angle_r	hip_flexion_l	hip_adduction_l	hip_rotation_l	knee_angle_l	ankle_angle_l	subtalar_angle_l	lumbar_extension	lumbar_bending	lumbar_rotation
      0.01000000	     -2.47910392	     -3.02386145	     -4.55665301	     -1.19717706	      0.95608721	      0.34027498	     10.00043571	      2.92229056	     -3.44523429	    -21.01725154	     12.59640031	     -0.64184188	     10.09447998	     -4.91835064	     -6.35911799	    -23.89486422	     13.27852077	     -5.74735681	     -4.56188221	      1.01457278	     -0.92063565
      0.02000000	     -2.48114825	     -3.02102531	     -4.60881910	     -1.19703287	      0.95606251	      0.34041776	     10.00808516	      2.93353622	     -3.39111109	    -21.03997828	     12.62068605	     -0.60028409	     10.07436201	     -4.92989176	     -6.42120962	    -23.89113107	     13.28695780	     -5.79087709	     -4.58964960	      1.02972516	     -0.85278630
      0.03000000	     -2.47990730	     -3.01148188	     -4.65501875	     -1.19689979	      0.95602714	      0.34056187	     10.01981661	      2.93763051	     -3.33854220	    -21.07509763	     12.64547740	     -0.58783741	     10.05934456	     -4.93064457	     -6.46165421	    -23.89854179	     13.29584439	     -5.80954949	     -4.62971498	      1.04001042	     -0.79279828
      0.04000000	     -2.47608294	     -3.00592124	     -4.68074201	     -1.19680507	      0.95598010	      0.34069725	     10.02979441	      2.94392145	     -3.30947430	    -21.10865481	     12.65910574	     -0.58976517	     10.06589138	     -4.93098106	     -6.45590341	    -23.93927518	     13.30199661	     -5.81480996	     -4.68408589	      1.05230859	     -0.75169402
      0.05000000	     -2.47338803	     -3.00736713	     -4.73451289	     -1.19671177	      0.95590867	      0.34087490	     10.04405738	      2.96698996	     -3.22683343	    -21.14984002	     12.70632965	     -0.60532699	     10.07142755	     -4.94694799	     -6.49574089	    -23.98560959	     13.34080678	     -5.83221637	     -4.73708147	      1.07589292	     -0.67277855
      0.06000000	     -2.46643615	     -3.00258371	     -4.75239998	     -1.19665742	      0.95584330	      0.34100948	     10.04954187	      2.97499771	     -3.19476381	    -21.17787666	     12.71938401	     -0.61450450	     10.09485709	     -4.94695490	     -6.47517379	    -24.05437060	     13.34980675	     -5.83788381	     -4.80146709	      1.08436516	     -0.61936654
      0.07000000	     -2.46351443	     -3.01507151	     -4.77829712	     -1.19660805	      0.95575489	      0.34113859	     10.06032735	      3.00544533	     -3.13334951	    -21.21327870	     12.76504731	     -0.64457879	     10.12259334	     -4.96810897	     -6.47090683	    -24.12715124	     13.39114881	     -5.85575081	     -4.85976998	      1.11800798	     -0.55398776
      0.08000000	     -2.45634269	     -3.01089267	     -4.77776567	     -1.19656351	      0.95568660	      0.34122044	     10.05761746	      3.00920798	     -3.11611534	    -21.22822806	     12.77653337	     -0.65531231	     10.15407367	     -4.96465715	     -6.43947284	    -24.20182533	     13.40034984	     -5.86194939	     -4.91953701	      1.12662699	     -0.49644354
      0.09000000	     -2.45252435	     -3.03247420	     -4.76820585	     -1.19652880	      0.95560166	      0.34128963	     10.05790917	      3.04210566	     -3.09237326	    -21.24968961	     12.81953056	     -0.69254911	     10.18818442	     -4.98965736	     -6.40191969	    -24.27421728	     13.44147233	     -5.88259872	     -4.97635233	      1.16569368	     -0.44632407
      0.10000000	     -2.44853085	     -3.03378817	     -4.74784867	     -1.19648413	      0.95553905	      0.34132658	     10.05001325	      3.04702933	     -3.09406585	    -21.25220223	     12.83078983	     -0.70827604	     10.21902626	     -4.98986149	     -6.36460201	    -24.33475564	     13.45230455	     -5.89084453	     -5.02769988	      1.17686868	     -0.39122243
      0.11000000	     -2.44105580	     -3.05764559	     -4.70009514	     -1.19642103	      0.95548255	      0.34131667	     10.03489443	      3.07093031	     -3.11695859	    -21.25937699	     12.85999094	     -0.74569342	     10.24468747	     -5.01005308	     -6.30334007	    -24.38863207	     13.48315443	     -5.91157214	     -5.07754676	      1.21533877	     -0.35549312
      0.12000000	     -2.43985602	     -3.05652970	     -4.66104328	     -1.19635225	      0.95544013	      0.34131382	     10.02383456	      3.06983908	     -3.13038315	    -21.25493803	     12.86423822	     -0.75434070	     10.26715603	     -5.00646073	     -6.27433321	    -24.42371820	     13.48703657	     -5.91680806	     -5.11431069	      1.21925342	     -0.30176459
      0.13000000	     -2.42861575	     -3.07867044	     -4.59487607	     -1.19628529	      0.95541683	      0.34125476	     10.00299804	      3.08346367	     -3.19053627	    -21.25695704	     12.88332939	     -0.78359606	     10.27627806	     -5.01863501	     -6.19954837	    -24.44965173	     13.50672573	     -5.93707118	     -5.16448344	      1.25455924	     -0.28062632
      0.14000000	     -2.42964036	     -3.07682141	     -4.54682655	     -1.19620804	      0.95539302	      0.34121810	      9.99307254	      3.07798341	     -3.20910199	    -21.25055934	     12.88440291	     -0.78867067	     10.29077517	     -5.01285933	     -6.17479402	    -24.46623491	     13.50661992	     -5.94118938	     -5.19272824	      1.25811723	     -0.22788448
      0.15000000	     -2.41938496	     -3.08758677	     -4.47175482	     -1.19612249	      0.95539546	      0.34114100	      9.97242887	      3.07694862	     -3.27854104	    -21.25248528	     12.89200080	     -0.80116300	     10.28594477	     -5.01061649	     -6.10249287	    -24.46222589	     13.50916693	     -5.95569256	     -5.23281810	      1.27408221	     -0.20642340
      0.16000000	     -2.42477975	     -3.08500899	     -4.41848269	     -1.19603932	      0.95538859	      0.34110175	      9.96438597	      3.07147457	     -3.29566722	    -21.24206295	     12.89303649	     -0.80205252	     10.29623487	     -5.00521467	     -6.08244396	    -24.46241240	     13.50613700	     -5.95764150	     -5.25111850	      1.27108330	     -0.15336413
      0.17000000	     -2.43154766	     -3.08500171	     -4.36211976	     -1.19595868	      0.95538977	      0.34105992	      9.95698282	      3.06701244	     -3.32835984	    -21.23163636	     12.89590423	     -0.80285302	     10.30202320	     -4.99906023	     -6.04372525	    -24.44910699	     13.49923556	     -5.95836856	     -5.26822482	      1.26702299	     -0.09514402
      0.18000000	     -2.43362308	     -3.08176519	     -4.27927545	     -1.19587465	      0.95541350	      0.34098137	      9.94332983	      3.05269127	     -3.39884109	    -21.21980101	     12.89630066	     -0.80526667	     10.29559168	     -4.97984680	     -5.96057362	    -24.41459322	     13.47909028	     -5.96030910	     -5.28917585	      1.25974481	     -0.08399574
